<svg width="45" height="50" viewBox="0 0 45 50" fill="none" xmlns="http://www.w3.org/2000/svg">
<path d="M37.7036 8.32229C39.82 8.32229 41.5427 6.59963 41.5427 4.48323C41.5427 2.36682 39.82 0.644165 37.7036 0.644165C35.5862 0.644165 33.8636 2.36682 33.8636 4.48323C33.8636 6.59963 35.5862 8.32229 37.7036 8.32229ZM37.7036 2.55287C38.7668 2.55287 39.634 3.41912 39.634 4.48323C39.634 5.54734 38.7668 6.41359 37.7036 6.41359C36.6385 6.41359 35.7733 5.54734 35.7733 4.48323C35.7733 3.41912 36.6395 2.55287 37.7036 2.55287ZM22.5 8.32229C24.6164 8.32229 26.338 6.59963 26.338 4.48323C26.338 2.36682 24.6164 0.644165 22.5 0.644165C20.3836 0.644165 18.6609 2.36682 18.6609 4.48323C18.6609 6.59963 20.3836 8.32229 22.5 8.32229ZM22.5 2.55287C23.5631 2.55287 24.4293 3.41912 24.4293 4.48323C24.4293 5.54734 23.5641 6.41359 22.5 6.41359C21.4359 6.41359 20.5696 5.54734 20.5696 4.48323C20.5696 3.41912 21.4359 2.55287 22.5 2.55287ZM7.29629 8.32229C9.41368 8.32229 11.1344 6.59963 11.1344 4.48323C11.1344 2.36682 9.41368 0.644165 7.29629 0.644165C5.17988 0.644165 3.45722 2.36682 3.45722 4.48323C3.45722 6.59963 5.17988 8.32229 7.29629 8.32229ZM7.29629 2.55287C8.3604 2.55287 9.22665 3.41912 9.22665 4.48323C9.22665 5.54734 8.3604 6.41359 7.29629 6.41359C6.23218 6.41359 5.36593 5.54734 5.36593 4.48323C5.36593 3.41912 6.23218 2.55287 7.29629 2.55287ZM43.353 24.026H1.64991C1.12229 24.026 0.695068 24.4542 0.695068 24.9809V48.218C0.695068 48.7456 1.12229 49.1729 1.64991 49.1729H43.353C43.8816 49.1729 44.3088 48.7456 44.3088 48.218V24.9809C44.3078 24.4542 43.8816 24.026 43.353 24.026ZM42.3991 47.2642H2.60476V25.9357H42.3991V47.2642Z" fill="white"/>
</svg>
