<svg width="16" height="18" viewBox="0 0 16 18" fill="none" xmlns="http://www.w3.org/2000/svg">
<path d="M15.0313 4.78125C15.125 4.875 15.2188 4.99554 15.3125 5.14286H10.5714V0.401786C10.7188 0.495536 10.8393 0.589286 10.933 0.683036L15.0313 4.78125ZM10.25 6.42857H15.7143V17.0357C15.7143 17.3036 15.6205 17.5312 15.433 17.7188C15.2455 17.9062 15.0179 18 14.75 18H1.25001C0.982149 18 0.754471 17.9062 0.566971 17.7188C0.379471 17.5312 0.285721 17.3036 0.285721 17.0357V0.964286C0.285721 0.696429 0.379471 0.46875 0.566971 0.28125C0.754471 0.09375 0.982149 0 1.25001 0H9.28572V5.46429C9.28572 5.73214 9.37947 5.95982 9.56697 6.14732C9.75447 6.33482 9.98215 6.42857 10.25 6.42857ZM11.8571 13.8214V13.1786C11.8571 13.0848 11.827 13.0078 11.7667 12.9475C11.7065 12.8873 11.6295 12.8571 11.5357 12.8571H4.46429C4.37054 12.8571 4.29353 12.8873 4.23327 12.9475C4.173 13.0078 4.14286 13.0848 4.14286 13.1786V13.8214C4.14286 13.9152 4.173 13.9922 4.23327 14.0525C4.29353 14.1127 4.37054 14.1429 4.46429 14.1429H11.5357C11.6295 14.1429 11.7065 14.1127 11.7667 14.0525C11.827 13.9922 11.8571 13.9152 11.8571 13.8214ZM11.8571 11.25V10.6071C11.8571 10.5134 11.827 10.4364 11.7667 10.3761C11.7065 10.3158 11.6295 10.2857 11.5357 10.2857H4.46429C4.37054 10.2857 4.29353 10.3158 4.23327 10.3761C4.173 10.4364 4.14286 10.5134 4.14286 10.6071V11.25C4.14286 11.3438 4.173 11.4208 4.23327 11.481C4.29353 11.5413 4.37054 11.5714 4.46429 11.5714H11.5357C11.6295 11.5714 11.7065 11.5413 11.7667 11.481C11.827 11.4208 11.8571 11.3438 11.8571 11.25ZM11.8571 8.67857V8.03571C11.8571 7.94196 11.827 7.86496 11.7667 7.80469C11.7065 7.74442 11.6295 7.71429 11.5357 7.71429H4.46429C4.37054 7.71429 4.29353 7.74442 4.23327 7.80469C4.173 7.86496 4.14286 7.94196 4.14286 8.03571V8.67857C4.14286 8.77232 4.173 8.84933 4.23327 8.9096C4.29353 8.96987 4.37054 9 4.46429 9H11.5357C11.6295 9 11.7065 8.96987 11.7667 8.9096C11.827 8.84933 11.8571 8.77232 11.8571 8.67857Z" fill="white"/>
</svg>
